<?xml version="1.0" standalone="no"?>
<!DOCTYPE svg PUBLIC "-//W3C//DTD SVG 20010904//EN"
 "http://www.w3.org/TR/2001/REC-SVG-20010904/DTD/svg10.dtd">
<svg version="1.0" xmlns="http://www.w3.org/2000/svg"
 width="730.000000pt" height="730.000000pt" viewBox="0 0 730.000000 730.000000"
 preserveAspectRatio="xMidYMid meet">
<metadata>
Created by potrace 1.14, written by Peter Selinger 2001-2017
</metadata>
<g transform="translate(0.000000,730.000000) scale(0.100000,-0.100000)"
fill="#000000" stroke="none">
<path d="M3945 6249 c-6 -9 -24 -18 -60 -30 -5 -2 -30 -6 -55 -10 -98 -16
-116 -21 -130 -38 -9 -10 -58 -40 -110 -67 -52 -27 -97 -53 -99 -58 -6 -14
-44 -51 -64 -63 -12 -6 -18 -22 -19 -44 0 -19 -7 -49 -15 -68 -17 -38 -26
-188 -12 -196 20 -13 8 -43 -21 -55 -30 -13 -44 -36 -45 -80 -1 -14 -5 -31 -9
-38 -4 -7 -5 -15 -2 -20 2 -4 7 -33 10 -65 l7 -57 -921 0 -920 0 0 -2620 0
-2620 33 6 c17 3 55 10 82 15 28 4 64 11 80 14 17 2 57 10 90 16 33 6 71 12
85 14 14 2 39 6 55 9 17 3 71 12 120 20 50 9 101 18 115 21 14 3 66 12 115 21
50 8 101 17 115 19 14 3 52 9 85 15 33 5 71 12 85 15 14 3 66 12 115 20 50 8
100 17 111 19 12 2 39 7 60 11 57 9 70 11 294 50 113 19 216 37 230 40 13 2
42 7 65 11 22 3 112 18 200 34 88 16 174 31 190 34 56 9 329 57 555 96 124 22
241 43 260 46 19 3 44 8 55 10 11 1 85 14 165 28 296 51 597 104 630 112 14 3
39 7 55 9 29 5 52 9 105 20 14 3 41 7 60 9 19 2 47 7 63 10 15 3 38 8 52 11
l25 5 0 2240 0 2240 -650 0 c-586 0 -650 2 -650 16 0 11 7 14 28 11 15 -2 21
-2 14 0 -7 3 -10 8 -7 13 3 5 -14 22 -37 38 -89 61 -158 170 -149 235 1 5 13
0 29 -11 30 -21 52 -27 127 -38 72 -10 134 -10 129 -2 -3 5 -13 8 -23 8 -45 0
-182 48 -214 76 -37 30 -47 47 -23 38 27 -10 28 17 1 41 l-26 25 37 -3 c43 -2
58 18 22 32 -31 13 -93 68 -93 83 -1 7 6 24 14 37 14 22 23 71 14 71 -3 0 -24
-13 -48 -30 -53 -36 -65 -37 -88 -5 -17 24 -17 25 3 25 24 0 25 6 6 41 -7 14
-17 52 -21 84 -8 68 -14 85 -27 85 -5 0 -7 -4 -4 -9 7 -10 -19 -40 -60 -69
l-32 -22 -25 24 c-14 13 -28 21 -31 18 -3 -3 -6 0 -6 7 0 7 -6 11 -14 8 -8 -3
-16 -2 -18 3 -2 5 -22 10 -45 11 -24 2 -43 4 -43 6 0 2 12 15 28 28 15 13 22
25 15 25 -6 0 -15 -5 -18 -11z m559 -868 c11 -4 15 -10 9 -14 -5 -3 -19 0 -29
8 -20 15 -11 18 20 6z"/>
</g>
</svg>
